<?xml version="1.0" encoding="utf-8"?>
<!-- Generator: Adobe Illustrator 19.0.0, SVG Export Plug-In . SVG Version: 6.00 Build 0)  -->
<!DOCTYPE svg PUBLIC "-//W3C//DTD SVG 1.1//EN" "http://www.w3.org/Graphics/SVG/1.1/DTD/svg11.dtd">
<svg version="1.1" id="Layer_1" xmlns="http://www.w3.org/2000/svg" xmlns:xlink="http://www.w3.org/1999/xlink" x="0px" y="0px"
	 viewBox="0 0 400 400" style="enable-background:new 0 0 400 400;" xml:space="preserve">
<style type="text/css">
	.st0{fill:#00ADDB;}
	.st1{fill:#00121F;}
	.st2{fill:#FCC000;}
	.st3{fill:#8FC400;}
	.st4{fill:#F1591B;}
	.st5{fill:#E31D59;}
	.st6{fill:#75169F;}
	.st7{fill:#FFFFFF;}
</style>
<g id="XMLID_184_">
	<path id="XMLID_37_" class="st0" d="M1304-450c35.107,0,69.596,9.241,100,26.795c30.404,17.554,55.651,42.801,73.205,73.205
		S1504-285.107,1504-250s-9.241,69.596-26.795,100S1434.404-94.349,1404-76.795S1339.107-50,1304-50s-69.596-9.241-100-26.795
		s-55.651-42.801-73.205-73.205S1104-214.893,1104-250s9.241-69.596,26.795-100s42.801-55.651,73.205-73.205
		C1234.404-440.759,1268.893-450,1304-450z M1219-397.224c-25.843,14.921-47.304,36.381-62.224,62.224
		c-14.921,25.843-22.776,55.159-22.776,85s7.855,59.157,22.776,85c14.921,25.843,36.381,47.304,62.224,62.224S1274.159-80,1304-80
		s59.157-7.855,85-22.776s47.304-36.381,62.224-62.224c14.921-25.843,22.776-55.159,22.776-85s-7.855-59.157-22.776-85
		c-14.921-25.843-36.381-47.304-62.224-62.224c-25.843-14.921-55.159-22.776-85-22.776S1244.843-412.145,1219-397.224z"/>
	<path id="XMLID_43_" class="st1" d="M1304-420c29.841,0,59.157,7.855,85,22.776c25.843,14.921,47.304,36.381,62.224,62.224
		c14.921,25.843,22.776,55.159,22.776,85s-7.855,59.157-22.776,85c-14.921,25.843-36.381,47.304-62.224,62.224S1333.841-80,1304-80
		s-59.157-7.855-85-22.776s-47.304-36.381-62.224-62.224c-14.921-25.843-22.776-55.159-22.776-85s7.855-59.157,22.776-85
		c14.921-25.843,36.381-47.304,62.224-62.224C1244.843-412.145,1274.159-420,1304-420z"/>
</g>
<g id="XMLID_927_">
	<path id="XMLID_932_" class="st2" d="M200-450c35.107,0,69.596,9.241,100,26.795c30.404,17.554,55.651,42.801,73.205,73.205
		C390.759-319.596,400-285.107,400-250s-9.241,69.596-26.795,100C355.651-119.596,330.404-94.349,300-76.795S235.107-50,200-50
		s-69.596-9.241-100-26.795S44.349-119.596,26.795-150S0-214.893,0-250s9.241-69.596,26.795-100S69.596-405.651,100-423.205
		C130.404-440.759,164.893-450,200-450z M115-397.224C89.157-382.304,67.696-360.843,52.776-335S30-279.841,30-250
		s7.855,59.157,22.776,85S89.157-117.696,115-102.776S170.159-80,200-80s59.157-7.855,85-22.776s47.304-36.381,62.224-62.224
		C362.145-190.843,370-220.159,370-250s-7.855-59.157-22.776-85c-14.921-25.843-36.381-47.304-62.224-62.224
		C259.157-412.145,229.841-420,200-420S140.843-412.145,115-397.224z"/>
	<path id="XMLID_928_" class="st1" d="M200-420c29.841,0,59.157,7.855,85,22.776c25.843,14.921,47.304,36.381,62.224,62.224
		C362.145-309.157,370-279.841,370-250s-7.855,59.157-22.776,85c-14.921,25.843-36.381,47.304-62.224,62.224S229.841-80,200-80
		s-59.157-7.855-85-22.776S67.696-139.157,52.776-165S30-220.159,30-250s7.855-59.157,22.776-85S89.157-382.304,115-397.224
		C140.843-412.145,170.159-420,200-420z"/>
</g>
<g id="XMLID_967_">
	<path id="XMLID_972_" class="st3" d="M200,0c35.107,0,69.596,9.241,100,26.795S355.651,69.596,373.205,100
		C390.759,130.404,400,164.893,400,200s-9.241,69.596-26.795,100c-17.554,30.404-42.801,55.651-73.205,73.205
		C269.596,390.759,235.107,400,200,400s-69.596-9.241-100-26.795C69.596,355.651,44.349,330.404,26.795,300S0,235.107,0,200
		s9.241-69.596,26.795-100S69.596,44.349,100,26.795S164.893,0,200,0z M115,52.776C89.157,67.696,67.696,89.157,52.776,115
		S30,170.159,30,200s7.855,59.157,22.776,85S89.157,332.304,115,347.224C140.843,362.145,170.159,370,200,370
		s59.157-7.855,85-22.776c25.843-14.921,47.304-36.381,62.224-62.224C362.145,259.157,370,229.841,370,200s-7.855-59.157-22.776-85
		C332.304,89.157,310.843,67.696,285,52.776S229.841,30,200,30S140.843,37.855,115,52.776z"/>
	<path id="XMLID_968_" class="st1" d="M200,30c29.841,0,59.157,7.855,85,22.776S332.304,89.157,347.224,115
		C362.145,140.843,370,170.159,370,200s-7.855,59.157-22.776,85c-14.921,25.843-36.381,47.304-62.224,62.224
		C259.157,362.145,229.841,370,200,370s-59.157-7.855-85-22.776C89.157,332.304,67.696,310.843,52.776,285S30,229.841,30,200
		s7.855-59.157,22.776-85S89.157,67.696,115,52.776S170.159,30,200,30z"/>
</g>
<g id="XMLID_1007_">
	<path id="XMLID_1012_" class="st0" d="M200,450c35.107,0,69.596,9.241,100,26.795c30.404,17.554,55.651,42.801,73.205,73.205
		C390.759,580.404,400,614.893,400,650s-9.241,69.596-26.795,100c-17.554,30.404-42.801,55.651-73.205,73.205S235.107,850,200,850
		s-69.596-9.241-100-26.795S44.349,780.404,26.795,750S0,685.107,0,650s9.241-69.596,26.795-100S69.596,494.349,100,476.795
		C130.404,459.241,164.893,450,200,450z M115,502.776C89.157,517.696,67.696,539.157,52.776,565S30,620.159,30,650
		s7.855,59.157,22.776,85S89.157,782.304,115,797.224C140.843,812.145,170.159,820,200,820s59.157-7.855,85-22.776
		c25.843-14.921,47.304-36.381,62.224-62.224C362.145,709.157,370,679.841,370,650s-7.855-59.157-22.776-85
		c-14.921-25.843-36.381-47.304-62.224-62.224C259.157,487.855,229.841,480,200,480S140.843,487.855,115,502.776z"/>
	<path id="XMLID_1008_" class="st1" d="M200,480c29.841,0,59.157,7.855,85,22.776c25.843,14.921,47.304,36.381,62.224,62.224
		C362.145,590.843,370,620.159,370,650s-7.855,59.157-22.776,85c-14.921,25.843-36.381,47.304-62.224,62.224
		C259.157,812.145,229.841,820,200,820s-59.157-7.855-85-22.776C89.157,782.304,67.696,760.843,52.776,735S30,679.841,30,650
		s7.855-59.157,22.776-85S89.157,517.696,115,502.776C140.843,487.855,170.159,480,200,480z"/>
</g>
<g id="XMLID_1047_">
	<path id="XMLID_1052_" class="st4" d="M200,908c35.107,0,69.596,9.241,100,26.795s55.651,42.801,73.205,73.205
		c17.554,30.404,26.795,64.893,26.795,100s-9.241,69.596-26.795,100c-17.554,30.404-42.801,55.651-73.205,73.205
		S235.107,1308,200,1308s-69.596-9.241-100-26.795S44.349,1238.404,26.795,1208S0,1143.107,0,1108s9.241-69.596,26.795-100
		c17.554-30.404,42.801-55.651,73.205-73.205S164.893,908,200,908z M115,960.776C89.157,975.696,67.696,997.157,52.776,1023
		S30,1078.159,30,1108s7.855,59.157,22.776,85s36.381,47.304,62.224,62.224c25.843,14.921,55.159,22.776,85,22.776
		s59.157-7.855,85-22.776c25.843-14.921,47.304-36.381,62.224-62.224c14.921-25.843,22.776-55.159,22.776-85
		s-7.855-59.157-22.776-85c-14.921-25.843-36.381-47.304-62.224-62.224C259.157,945.855,229.841,938,200,938
		S140.843,945.855,115,960.776z"/>
	<path id="XMLID_1048_" class="st1" d="M200,938c29.841,0,59.157,7.855,85,22.776c25.843,14.921,47.304,36.381,62.224,62.224
		c14.921,25.843,22.776,55.159,22.776,85s-7.855,59.157-22.776,85c-14.921,25.843-36.381,47.304-62.224,62.224
		c-25.843,14.921-55.159,22.776-85,22.776s-59.157-7.855-85-22.776c-25.843-14.921-47.304-36.381-62.224-62.224S30,1137.841,30,1108
		s7.855-59.157,22.776-85S89.157,975.696,115,960.776C140.843,945.855,170.159,938,200,938z"/>
</g>
<g id="XMLID_1087_">
	<path id="XMLID_1092_" class="st5" d="M200,1348c35.107,0,69.596,9.241,100,26.795s55.651,42.801,73.205,73.205
		c17.554,30.404,26.795,64.893,26.795,100s-9.241,69.596-26.795,100c-17.554,30.404-42.801,55.651-73.205,73.205
		S235.107,1748,200,1748s-69.596-9.241-100-26.795S44.349,1678.404,26.795,1648S0,1583.107,0,1548s9.241-69.596,26.795-100
		s42.801-55.651,73.205-73.205S164.893,1348,200,1348z M115,1400.776c-25.843,14.921-47.304,36.381-62.224,62.224
		S30,1518.159,30,1548s7.855,59.157,22.776,85s36.381,47.304,62.224,62.224c25.843,14.921,55.159,22.776,85,22.776
		s59.157-7.855,85-22.776c25.843-14.921,47.304-36.381,62.224-62.224c14.921-25.843,22.776-55.159,22.776-85
		s-7.855-59.157-22.776-85c-14.921-25.843-36.381-47.304-62.224-62.224c-25.843-14.921-55.159-22.776-85-22.776
		S140.843,1385.855,115,1400.776z"/>
	<path id="XMLID_1088_" class="st1" d="M200,1378c29.841,0,59.157,7.855,85,22.776c25.843,14.921,47.304,36.381,62.224,62.224
		c14.921,25.843,22.776,55.159,22.776,85s-7.855,59.157-22.776,85c-14.921,25.843-36.381,47.304-62.224,62.224
		c-25.843,14.921-55.159,22.776-85,22.776s-59.157-7.855-85-22.776c-25.843-14.921-47.304-36.381-62.224-62.224S30,1577.841,30,1548
		s7.855-59.157,22.776-85s36.381-47.304,62.224-62.224C140.843,1385.855,170.159,1378,200,1378z"/>
</g>
<g id="XMLID_1127_">
	<path id="XMLID_1132_" class="st6" d="M200,1785c35.107,0,69.596,9.241,100,26.795s55.651,42.801,73.205,73.205
		c17.554,30.404,26.795,64.893,26.795,100s-9.241,69.596-26.795,100c-17.554,30.404-42.801,55.651-73.205,73.205
		S235.107,2185,200,2185s-69.596-9.241-100-26.795S44.349,2115.404,26.795,2085S0,2020.107,0,1985s9.241-69.596,26.795-100
		s42.801-55.651,73.205-73.205S164.893,1785,200,1785z M115,1837.776c-25.843,14.921-47.304,36.381-62.224,62.224
		S30,1955.159,30,1985s7.855,59.157,22.776,85s36.381,47.304,62.224,62.224S170.159,2155,200,2155s59.157-7.855,85-22.776
		s47.304-36.381,62.224-62.224c14.921-25.843,22.776-55.159,22.776-85s-7.855-59.157-22.776-85
		c-14.921-25.843-36.381-47.304-62.224-62.224c-25.843-14.921-55.159-22.776-85-22.776S140.843,1822.855,115,1837.776z"/>
	<path id="XMLID_1128_" class="st1" d="M200,1815c29.841,0,59.157,7.855,85,22.776c25.843,14.921,47.304,36.381,62.224,62.224
		c14.921,25.843,22.776,55.159,22.776,85s-7.855,59.157-22.776,85c-14.921,25.843-36.381,47.304-62.224,62.224
		S229.841,2155,200,2155s-59.157-7.855-85-22.776S67.696,2095.843,52.776,2070S30,2014.841,30,1985s7.855-59.157,22.776-85
		s36.381-47.304,62.224-62.224C140.843,1822.855,170.159,1815,200,1815z"/>
</g>
<g id="XMLID_1310_">
	<path id="XMLID_1315_" class="st1" d="M200,2209c35.107,0,69.596,9.241,100,26.795s55.651,42.801,73.205,73.205
		c17.554,30.404,26.795,64.893,26.795,100s-9.241,69.596-26.795,100c-17.554,30.404-42.801,55.651-73.205,73.205
		S235.107,2609,200,2609s-69.596-9.241-100-26.795S44.349,2539.404,26.795,2509S0,2444.107,0,2409s9.241-69.596,26.795-100
		s42.801-55.651,73.205-73.205S164.893,2209,200,2209z M115,2261.776c-25.843,14.921-47.304,36.381-62.224,62.224
		S30,2379.159,30,2409s7.855,59.157,22.776,85s36.381,47.304,62.224,62.224S170.159,2579,200,2579s59.157-7.855,85-22.776
		s47.304-36.381,62.224-62.224c14.921-25.843,22.776-55.159,22.776-85s-7.855-59.157-22.776-85
		c-14.921-25.843-36.381-47.304-62.224-62.224S229.841,2239,200,2239S140.843,2246.855,115,2261.776z"/>
	<path id="XMLID_1311_" class="st7" d="M200,2239c29.841,0,59.157,7.855,85,22.776s47.304,36.381,62.224,62.224
		c14.921,25.843,22.776,55.159,22.776,85s-7.855,59.157-22.776,85c-14.921,25.843-36.381,47.304-62.224,62.224
		S229.841,2579,200,2579s-59.157-7.855-85-22.776S67.696,2519.843,52.776,2494S30,2438.841,30,2409s7.855-59.157,22.776-85
		s36.381-47.304,62.224-62.224S170.159,2239,200,2239z"/>
</g>
<g id="XMLID_186_">
	<path id="XMLID_90_" class="st3" d="M1784-450c35.107,0,69.596,9.241,100,26.795c30.404,17.554,55.651,42.801,73.205,73.205
		S1984-285.107,1984-250s-9.241,69.596-26.795,100S1914.404-94.349,1884-76.795S1819.107-50,1784-50v-30
		c29.841,0,59.157-7.855,85-22.776s47.304-36.381,62.224-62.224c14.921-25.843,22.776-55.159,22.776-85s-7.855-59.157-22.776-85
		c-14.921-25.843-36.381-47.304-62.224-62.224c-25.843-14.921-55.159-22.776-85-22.776V-450z"/>
	<path id="XMLID_84_" class="st6" d="M1784-450c35.107,0,69.596,9.241,100,26.795c30.404,17.554,55.651,42.801,73.205,73.205
		S1984-285.107,1984-250s-9.241,69.596-26.795,100S1914.404-94.349,1884-76.795S1819.107-50,1784-50v-30
		c29.841,0,59.157-7.855,85-22.776s47.304-36.381,62.224-62.224c14.921-25.843,22.776-55.159,22.776-85s-7.855-59.157-22.776-85
		c-14.921-25.843-36.381-47.304-62.224-62.224c-25.843-14.921-55.159-22.776-85-22.776V-450z"/>
	<path id="XMLID_78_" class="st5" d="M1784-450c35.107,0,69.596,9.241,100,26.795c30.404,17.554,55.651,42.801,73.205,73.205
		S1984-285.107,1984-250s-9.241,69.596-26.795,100S1914.404-94.349,1884-76.795S1819.107-50,1784-50v-30
		c29.841,0,59.157-7.855,85-22.776s47.304-36.381,62.224-62.224c14.921-25.843,22.776-55.159,22.776-85s-7.855-59.157-22.776-85
		c-14.921-25.843-36.381-47.304-62.224-62.224c-25.843-14.921-55.159-22.776-85-22.776V-450z"/>
	<path id="XMLID_72_" class="st5" d="M1784-450c35.107,0,69.596,9.241,100,26.795c30.404,17.554,55.651,42.801,73.205,73.205
		S1984-285.107,1984-250s-9.241,69.596-26.795,100S1914.404-94.349,1884-76.795S1819.107-50,1784-50v-30
		c29.841,0,59.157-7.855,85-22.776s47.304-36.381,62.224-62.224c14.921-25.843,22.776-55.159,22.776-85s-7.855-59.157-22.776-85
		c-14.921-25.843-36.381-47.304-62.224-62.224c-25.843-14.921-55.159-22.776-85-22.776V-450z"/>
	<path id="XMLID_66_" class="st0" d="M1784-50c-35.107,0-69.596-9.241-100-26.795s-55.651-42.801-73.205-73.205
		S1584-214.893,1584-250s9.241-69.596,26.795-100s42.801-55.651,73.205-73.205c30.404-17.554,64.893-26.795,100-26.795v30
		c-29.841,0-59.157,7.855-85,22.776c-25.843,14.921-47.304,36.381-62.224,62.224c-14.921,25.843-22.776,55.159-22.776,85
		s7.855,59.157,22.776,85c14.921,25.843,36.381,47.304,62.224,62.224S1754.159-80,1784-80V-50z"/>
	<path id="XMLID_60_" class="st1" d="M1784-420c29.841,0,59.157,7.855,85,22.776c25.843,14.921,47.304,36.381,62.224,62.224
		c14.921,25.843,22.776,55.159,22.776,85s-7.855,59.157-22.776,85c-14.921,25.843-36.381,47.304-62.224,62.224S1813.841-80,1784-80
		s-59.157-7.855-85-22.776s-47.304-36.381-62.224-62.224c-14.921-25.843-22.776-55.159-22.776-85s7.855-59.157,22.776-85
		c14.921-25.843,36.381-47.304,62.224-62.224C1724.843-412.145,1754.159-420,1784-420z"/>
</g>
<g id="XMLID_187_">
	<path id="XMLID_185_" class="st3" d="M1130.795,100c17.554-30.404,42.801-55.651,73.205-73.205S1268.893,0,1304,0
		s69.596,9.241,100,26.795s55.651,42.801,73.205,73.205l-25.981,15c-14.921-25.843-36.381-47.304-62.224-62.224S1333.841,30,1304,30
		s-59.157,7.855-85,22.776s-47.304,36.381-62.224,62.224L1130.795,100z"/>
	<path id="XMLID_173_" class="st5" d="M1304,400c-35.107,0-69.596-9.241-100-26.795c-30.404-17.554-55.651-42.801-73.205-73.205
		S1104,235.107,1104,200s9.241-69.596,26.795-100l25.981,15c-14.921,25.843-22.776,55.159-22.776,85s7.855,59.157,22.776,85
		c14.921,25.843,36.381,47.304,62.224,62.224c25.843,14.921,55.159,22.776,85,22.776V400z"/>
	<path id="XMLID_161_" class="st0" d="M1477.205,100c17.554,30.404,26.795,64.893,26.795,100s-9.241,69.596-26.795,100
		s-42.801,55.651-73.205,73.205C1373.596,390.759,1339.107,400,1304,400v-30c29.841,0,59.157-7.855,85-22.776
		c25.843-14.921,47.304-36.381,62.224-62.224c14.921-25.843,22.776-55.159,22.776-85s-7.855-59.157-22.776-85L1477.205,100z"/>
	<path id="XMLID_155_" class="st1" d="M1304,30c29.841,0,59.157,7.855,85,22.776s47.304,36.381,62.224,62.224
		c14.921,25.843,22.776,55.159,22.776,85s-7.855,59.157-22.776,85c-14.921,25.843-36.381,47.304-62.224,62.224
		c-25.843,14.921-55.159,22.776-85,22.776s-59.157-7.855-85-22.776c-25.843-14.921-47.304-36.381-62.224-62.224
		c-14.921-25.843-22.776-55.159-22.776-85s7.855-59.157,22.776-85c14.921-25.843,36.381-47.304,62.224-62.224S1274.159,30,1304,30z"
		/>
</g>
<g id="XMLID_188_">
	<path id="XMLID_144_" class="st2" d="M4001-50c-35.107,0-69.596-9.241-100-26.795s-55.651-42.801-73.205-73.205
		S3801-214.893,3801-250h30c0,29.841,7.855,59.157,22.776,85s36.381,47.304,62.224,62.224S3971.159-80,4001-80V-50z"/>
	<path id="XMLID_138_" class="st4" d="M4201-250c0,35.107-9.241,69.596-26.795,100S4131.404-94.349,4101-76.795S4036.107-50,4001-50
		v-30c29.841,0,59.157-7.855,85-22.776s47.304-36.381,62.224-62.224c14.921-25.843,22.776-55.159,22.776-85H4201z"/>
	<path id="XMLID_132_" class="st0" d="M4001-450c35.107,0,69.596,9.241,100,26.795c30.404,17.554,55.651,42.801,73.205,73.205
		S4201-285.107,4201-250h-30c0-29.841-7.855-59.157-22.776-85c-14.92-25.843-36.381-47.304-62.224-62.224
		c-25.843-14.921-55.159-22.776-85-22.776V-450z"/>
	<path id="XMLID_126_" class="st3" d="M3801-250c0-35.107,9.241-69.596,26.795-100s42.801-55.651,73.205-73.205
		c30.404-17.554,64.893-26.795,100-26.795v30c-29.841,0-59.157,7.855-85,22.776c-25.843,14.921-47.304,36.381-62.224,62.224
		S3831-279.841,3831-250H3801z"/>
	<path id="XMLID_120_" class="st1" d="M4001-420c29.841,0,59.157,7.855,85,22.776c25.843,14.921,47.304,36.381,62.224,62.224
		c14.921,25.843,22.776,55.159,22.776,85s-7.855,59.157-22.776,85c-14.92,25.843-36.381,47.304-62.224,62.224S4030.841-80,4001-80
		s-59.157-7.855-85-22.776s-47.304-36.381-62.224-62.224S3831-220.159,3831-250s7.855-59.157,22.776-85s36.381-47.304,62.224-62.224
		C3941.843-412.145,3971.159-420,4001-420z"/>
</g>
<g id="XMLID_524_">
	<path id="XMLID_547_" class="st2" d="M4445-50c-35.107,0-69.596-9.241-100-26.795s-55.651-42.801-73.205-73.205
		S4245-214.893,4245-250h30c0,29.841,7.855,59.157,22.776,85c14.92,25.843,36.381,47.304,62.224,62.224S4415.159-80,4445-80V-50z"/>
	<path id="XMLID_541_" class="st6" d="M4645-250c0,35.107-9.241,69.596-26.795,100S4575.404-94.349,4545-76.795S4480.107-50,4445-50
		v-30c29.841,0,59.157-7.855,85-22.776s47.304-36.381,62.224-62.224c14.921-25.843,22.776-55.159,22.776-85H4645z"/>
	<path id="XMLID_535_" class="st5" d="M4445-450c35.107,0,69.596,9.241,100,26.795c30.404,17.554,55.651,42.801,73.205,73.205
		S4645-285.107,4645-250h-30c0-29.841-7.855-59.157-22.776-85c-14.92-25.843-36.381-47.304-62.224-62.224
		c-25.843-14.921-55.159-22.776-85-22.776V-450z"/>
	<path id="XMLID_529_" class="st4" d="M4245-250c0-35.107,9.241-69.596,26.795-100s42.801-55.651,73.205-73.205
		c30.404-17.554,64.893-26.795,100-26.795v30c-29.841,0-59.157,7.855-85,22.776c-25.843,14.921-47.304,36.381-62.224,62.224
		c-14.921,25.843-22.776,55.159-22.776,85H4245z"/>
	<path id="XMLID_525_" class="st1" d="M4445-420c29.841,0,59.157,7.855,85,22.776c25.843,14.921,47.304,36.381,62.224,62.224
		c14.921,25.843,22.776,55.159,22.776,85s-7.855,59.157-22.776,85c-14.92,25.843-36.381,47.304-62.224,62.224S4474.841-80,4445-80
		s-59.157-7.855-85-22.776s-47.304-36.381-62.224-62.224c-14.921-25.843-22.776-55.159-22.776-85s7.855-59.157,22.776-85
		c14.92-25.843,36.381-47.304,62.224-62.224C4385.843-412.145,4415.159-420,4445-420z"/>
</g>
<g id="XMLID_408_">
	<path id="XMLID_431_" class="st2" d="M4001,400c-35.107,0-69.596-9.241-100-26.795c-30.404-17.554-55.651-42.801-73.205-73.205
		S3801,235.107,3801,200h30c0,29.841,7.855,59.157,22.776,85s36.381,47.304,62.224,62.224c25.843,14.921,55.159,22.776,85,22.776
		V400z"/>
	<path id="XMLID_425_" class="st5" d="M4201,200c0,35.107-9.241,69.596-26.795,100s-42.801,55.651-73.205,73.205
		C4070.596,390.759,4036.107,400,4001,400v-30c29.841,0,59.157-7.855,85-22.776c25.843-14.921,47.304-36.381,62.224-62.224
		c14.921-25.843,22.776-55.159,22.776-85H4201z"/>
	<path id="XMLID_419_" class="st0" d="M4001,0c35.107,0,69.596,9.241,100,26.795s55.651,42.801,73.205,73.205S4201,164.893,4201,200
		h-30c0-29.841-7.855-59.157-22.776-85c-14.92-25.843-36.381-47.304-62.224-62.224S4030.841,30,4001,30V0z"/>
	<path id="XMLID_413_" class="st3" d="M3801,200c0-35.107,9.241-69.596,26.795-100s42.801-55.651,73.205-73.205S3965.893,0,4001,0
		v30c-29.841,0-59.157,7.855-85,22.776s-47.304,36.381-62.224,62.224S3831,170.159,3831,200H3801z"/>
	<path id="XMLID_409_" class="st1" d="M4001,30c29.841,0,59.157,7.855,85,22.776s47.304,36.381,62.224,62.224
		c14.921,25.843,22.776,55.159,22.776,85s-7.855,59.157-22.776,85c-14.92,25.843-36.381,47.304-62.224,62.224
		c-25.843,14.921-55.159,22.776-85,22.776s-59.157-7.855-85-22.776c-25.843-14.921-47.304-36.381-62.224-62.224
		S3831,229.841,3831,200s7.855-59.157,22.776-85s36.381-47.304,62.224-62.224S3971.159,30,4001,30z"/>
</g>
<g id="XMLID_437_">
	<path id="XMLID_460_" class="st2" d="M4001,850c-35.107,0-69.596-9.241-100-26.795s-55.651-42.801-73.205-73.205
		S3801,685.107,3801,650h30c0,29.841,7.855,59.157,22.776,85s36.381,47.304,62.224,62.224c25.843,14.921,55.159,22.776,85,22.776
		V850z"/>
	<path id="XMLID_454_" class="st6" d="M4201,650c0,35.107-9.241,69.596-26.795,100s-42.801,55.651-73.205,73.205
		S4036.107,850,4001,850v-30c29.841,0,59.157-7.855,85-22.776c25.843-14.921,47.304-36.381,62.224-62.224
		c14.921-25.843,22.776-55.159,22.776-85H4201z"/>
	<path id="XMLID_448_" class="st0" d="M4001,450c35.107,0,69.596,9.241,100,26.795c30.404,17.554,55.651,42.801,73.205,73.205
		S4201,614.893,4201,650h-30c0-29.841-7.855-59.157-22.776-85c-14.92-25.843-36.381-47.304-62.224-62.224
		c-25.843-14.921-55.159-22.776-85-22.776V450z"/>
	<path id="XMLID_442_" class="st3" d="M3801,650c0-35.107,9.241-69.596,26.795-100s42.801-55.651,73.205-73.205
		c30.404-17.554,64.893-26.795,100-26.795v30c-29.841,0-59.157,7.855-85,22.776c-25.843,14.921-47.304,36.381-62.224,62.224
		S3831,620.159,3831,650H3801z"/>
	<path id="XMLID_438_" class="st1" d="M4001,480c29.841,0,59.157,7.855,85,22.776c25.843,14.921,47.304,36.381,62.224,62.224
		c14.921,25.843,22.776,55.159,22.776,85s-7.855,59.157-22.776,85c-14.92,25.843-36.381,47.304-62.224,62.224
		c-25.843,14.921-55.159,22.776-85,22.776s-59.157-7.855-85-22.776c-25.843-14.921-47.304-36.381-62.224-62.224
		S3831,679.841,3831,650s7.855-59.157,22.776-85s36.381-47.304,62.224-62.224C3941.843,487.855,3971.159,480,4001,480z"/>
</g>
<g id="XMLID_466_">
	<path id="XMLID_489_" class="st2" d="M4445,400c-35.107,0-69.596-9.241-100-26.795c-30.404-17.554-55.651-42.801-73.205-73.205
		S4245,235.107,4245,200h30c0,29.841,7.855,59.157,22.776,85c14.92,25.843,36.381,47.304,62.224,62.224
		c25.843,14.921,55.159,22.776,85,22.776V400z"/>
	<path id="XMLID_483_" class="st6" d="M4645,200c0,35.107-9.241,69.596-26.795,100s-42.801,55.651-73.205,73.205
		C4514.596,390.759,4480.107,400,4445,400v-30c29.841,0,59.157-7.855,85-22.776c25.843-14.921,47.304-36.381,62.224-62.224
		c14.921-25.843,22.776-55.159,22.776-85H4645z"/>
	<path id="XMLID_477_" class="st5" d="M4445,0c35.107,0,69.596,9.241,100,26.795s55.651,42.801,73.205,73.205S4645,164.893,4645,200
		h-30c0-29.841-7.855-59.157-22.776-85c-14.92-25.843-36.381-47.304-62.224-62.224S4474.841,30,4445,30V0z"/>
	<path id="XMLID_471_" class="st0" d="M4245,200c0-35.107,9.241-69.596,26.795-100s42.801-55.651,73.205-73.205S4409.893,0,4445,0
		v30c-29.841,0-59.157,7.855-85,22.776s-47.304,36.381-62.224,62.224c-14.921,25.843-22.776,55.159-22.776,85H4245z"/>
	<path id="XMLID_467_" class="st1" d="M4445,30c29.841,0,59.157,7.855,85,22.776s47.304,36.381,62.224,62.224
		c14.921,25.843,22.776,55.159,22.776,85s-7.855,59.157-22.776,85c-14.92,25.843-36.381,47.304-62.224,62.224
		c-25.843,14.921-55.159,22.776-85,22.776s-59.157-7.855-85-22.776c-25.843-14.921-47.304-36.381-62.224-62.224
		c-14.921-25.843-22.776-55.159-22.776-85s7.855-59.157,22.776-85c14.92-25.843,36.381-47.304,62.224-62.224S4415.159,30,4445,30z"
		/>
</g>
<g id="XMLID_816_">
	<path id="XMLID_856_" class="st2" d="M4001,1308c-35.107,0-69.596-9.241-100-26.795s-55.651-42.801-73.205-73.205
		S3801,1143.107,3801,1108h30c0,29.841,7.855,59.157,22.776,85s36.381,47.304,62.224,62.224c25.843,14.921,55.159,22.776,85,22.776
		V1308z"/>
	<path id="XMLID_850_" class="st6" d="M4201,1108c0,35.107-9.241,69.596-26.795,100s-42.801,55.651-73.205,73.205
		S4036.107,1308,4001,1308v-30c29.841,0,59.157-7.855,85-22.776c25.843-14.921,47.304-36.381,62.224-62.224
		c14.921-25.843,22.776-55.159,22.776-85H4201z"/>
	<path id="XMLID_844_" class="st4" d="M4001,908c35.107,0,69.596,9.241,100,26.795s55.651,42.801,73.205,73.205
		c17.554,30.404,26.795,64.893,26.795,100h-30c0-29.841-7.855-59.157-22.776-85c-14.92-25.843-36.381-47.304-62.224-62.224
		c-25.843-14.921-55.159-22.776-85-22.776V908z"/>
	<path id="XMLID_838_" class="st0" d="M3801,1108c0-35.107,9.241-69.596,26.795-100c17.554-30.404,42.801-55.651,73.205-73.205
		S3965.893,908,4001,908v30c-29.841,0-59.157,7.855-85,22.776c-25.843,14.921-47.304,36.381-62.224,62.224S3831,1078.159,3831,1108
		H3801z"/>
	<path id="XMLID_817_" class="st1" d="M4001,938c29.841,0,59.157,7.855,85,22.776c25.843,14.921,47.304,36.381,62.224,62.224
		c14.921,25.843,22.776,55.159,22.776,85s-7.855,59.157-22.776,85c-14.92,25.843-36.381,47.304-62.224,62.224
		c-25.843,14.921-55.159,22.776-85,22.776s-59.157-7.855-85-22.776c-25.843-14.921-47.304-36.381-62.224-62.224
		S3831,1137.841,3831,1108s7.855-59.157,22.776-85s36.381-47.304,62.224-62.224C3941.843,945.855,3971.159,938,4001,938z"/>
</g>
<g id="XMLID_495_">
	<path id="XMLID_518_" class="st2" d="M4001,1754c-35.107,0-69.596-9.241-100-26.795s-55.651-42.801-73.205-73.205
		S3801,1589.107,3801,1554h30c0,29.841,7.855,59.157,22.776,85s36.381,47.304,62.224,62.224c25.843,14.921,55.159,22.776,85,22.776
		V1754z"/>
	<path id="XMLID_512_" class="st5" d="M4201,1554c0,35.107-9.241,69.596-26.795,100s-42.801,55.651-73.205,73.205
		S4036.107,1754,4001,1754v-30c29.841,0,59.157-7.855,85-22.776c25.843-14.921,47.304-36.381,62.224-62.224
		c14.921-25.843,22.776-55.159,22.776-85H4201z"/>
	<path id="XMLID_506_" class="st4" d="M4001,1354c35.107,0,69.596,9.241,100,26.795s55.651,42.801,73.205,73.205
		S4201,1518.893,4201,1554h-30c0-29.841-7.855-59.157-22.776-85c-14.92-25.843-36.381-47.304-62.224-62.224
		c-25.843-14.921-55.159-22.776-85-22.776V1354z"/>
	<path id="XMLID_500_" class="st0" d="M3801,1554c0-35.107,9.241-69.596,26.795-100s42.801-55.651,73.205-73.205
		S3965.893,1354,4001,1354v30c-29.841,0-59.157,7.855-85,22.776c-25.843,14.921-47.304,36.381-62.224,62.224
		S3831,1524.159,3831,1554H3801z"/>
	<path id="XMLID_496_" class="st1" d="M4001,1384c29.841,0,59.157,7.855,85,22.776c25.843,14.921,47.304,36.381,62.224,62.224
		c14.921,25.843,22.776,55.159,22.776,85s-7.855,59.157-22.776,85c-14.92,25.843-36.381,47.304-62.224,62.224
		c-25.843,14.921-55.159,22.776-85,22.776s-59.157-7.855-85-22.776c-25.843-14.921-47.304-36.381-62.224-62.224
		S3831,1583.841,3831,1554s7.855-59.157,22.776-85s36.381-47.304,62.224-62.224C3941.843,1391.855,3971.159,1384,4001,1384z"/>
</g>
<g id="XMLID_221_">
	<path id="XMLID_255_" class="st3" d="M4862.789-311.803c4.301-13.237,9.99-26.043,17.006-38.197
		c17.554-30.404,42.801-55.651,73.205-73.205c30.404-17.554,64.893-26.795,100-26.795v30c-29.841,0-59.157,7.855-85,22.776
		c-25.843,14.921-47.304,36.381-62.224,62.224c-5.964,10.33-10.8,21.215-14.456,32.467L4862.789-311.803z"/>
	<path id="XMLID_249_" class="st2" d="M4935.443-88.197c-22.612-16.429-41.595-37.464-55.648-61.803
		C4862.241-180.404,4853-214.893,4853-250c0-21.074,3.33-41.925,9.789-61.803l28.532,9.271c-5.49,16.897-8.32,34.62-8.32,52.533
		c0,29.841,7.855,59.157,22.776,85c11.944,20.689,28.08,38.569,47.301,52.533L4935.443-88.197z"/>
	<path id="XMLID_243_" class="st5" d="M5170.557-88.197c-5.634,4.093-11.493,7.9-17.557,11.402C5122.596-59.241,5088.107-50,5053-50
		s-69.596-9.241-100-26.795c-6.064-3.501-11.923-7.308-17.557-11.402l17.634-24.271c4.789,3.479,9.769,6.715,14.923,9.691
		C4993.843-87.855,5023.159-80,5053-80s59.157-7.855,85-22.776c5.155-2.976,10.135-6.212,14.923-9.691L5170.557-88.197z"/>
	<path id="XMLID_237_" class="st4" d="M5243.211-311.803C5249.67-291.925,5253-271.074,5253-250c0,35.107-9.241,69.596-26.795,100
		c-14.053,24.34-33.036,45.375-55.648,61.803l-17.634-24.271c19.221-13.964,35.356-31.844,47.301-52.533
		c14.921-25.843,22.776-55.159,22.776-85c0-17.913-2.831-35.636-8.32-52.533L5243.211-311.803z"/>
	<path id="XMLID_231_" class="st0" d="M5053-450c35.107,0,69.596,9.241,100,26.795c30.404,17.554,55.651,42.801,73.205,73.205
		c7.017,12.153,12.705,24.959,17.006,38.197l-28.532,9.271c-3.656-11.252-8.491-22.137-14.456-32.467
		c-14.92-25.843-36.381-47.304-62.224-62.224c-25.843-14.921-55.159-22.776-85-22.776V-450z"/>
	<path id="XMLID_225_" class="st1" d="M5053-420c29.841,0,59.157,7.855,85,22.776c25.843,14.921,47.304,36.381,62.224,62.224
		c14.921,25.843,22.776,55.159,22.776,85s-7.855,59.157-22.776,85c-14.92,25.843-36.381,47.304-62.224,62.224S5082.841-80,5053-80
		s-59.157-7.855-85-22.776s-47.304-36.381-62.224-62.224c-14.921-25.843-22.776-55.159-22.776-85s7.855-59.157,22.776-85
		c14.92-25.843,36.381-47.304,62.224-62.224C4993.843-412.145,5023.159-420,5053-420z"/>
</g>
<g id="XMLID_553_">
	<path id="XMLID_582_" class="st3" d="M4862.789,138.197c4.301-13.237,9.99-26.043,17.006-38.197
		c17.554-30.404,42.801-55.651,73.205-73.205S5017.893,0,5053,0v30c-29.841,0-59.157,7.855-85,22.776s-47.304,36.381-62.224,62.224
		c-5.964,10.33-10.8,21.215-14.456,32.467L4862.789,138.197z"/>
	<path id="XMLID_576_" class="st2" d="M4935.443,361.803c-22.612-16.429-41.595-37.464-55.648-61.803
		C4862.241,269.596,4853,235.107,4853,200c0-21.074,3.33-41.925,9.789-61.803l28.532,9.271c-5.49,16.897-8.32,34.62-8.32,52.533
		c0,29.841,7.855,59.157,22.776,85c11.944,20.689,28.08,38.569,47.301,52.533L4935.443,361.803z"/>
	<path id="XMLID_570_" class="st6" d="M5170.557,361.803c-5.634,4.093-11.493,7.9-17.557,11.402
		C5122.596,390.759,5088.107,400,5053,400s-69.596-9.241-100-26.795c-6.064-3.501-11.923-7.308-17.557-11.402l17.634-24.271
		c4.789,3.479,9.769,6.715,14.923,9.691c25.843,14.921,55.159,22.776,85,22.776s59.157-7.855,85-22.776
		c5.155-2.976,10.135-6.212,14.923-9.691L5170.557,361.803z"/>
	<path id="XMLID_564_" class="st4" d="M5243.211,138.197C5249.67,158.075,5253,178.926,5253,200c0,35.107-9.241,69.596-26.795,100
		c-14.053,24.34-33.036,45.375-55.648,61.803l-17.634-24.271c19.221-13.964,35.356-31.844,47.301-52.533
		c14.921-25.843,22.776-55.159,22.776-85c0-17.913-2.831-35.636-8.32-52.533L5243.211,138.197z"/>
	<path id="XMLID_558_" class="st0" d="M5053,0c35.107,0,69.596,9.241,100,26.795s55.651,42.801,73.205,73.205
		c7.017,12.153,12.705,24.959,17.006,38.197l-28.532,9.271c-3.656-11.252-8.491-22.137-14.456-32.467
		c-14.92-25.843-36.381-47.304-62.224-62.224S5082.841,30,5053,30V0z"/>
	<path id="XMLID_554_" class="st1" d="M5053,30c29.841,0,59.157,7.855,85,22.776s47.304,36.381,62.224,62.224
		c14.921,25.843,22.776,55.159,22.776,85s-7.855,59.157-22.776,85c-14.92,25.843-36.381,47.304-62.224,62.224
		c-25.843,14.921-55.159,22.776-85,22.776s-59.157-7.855-85-22.776c-25.843-14.921-47.304-36.381-62.224-62.224
		c-14.921-25.843-22.776-55.159-22.776-85s7.855-59.157,22.776-85c14.92-25.843,36.381-47.304,62.224-62.224S5023.159,30,5053,30z"
		/>
</g>
<g id="XMLID_588_">
	<path id="XMLID_617_" class="st0" d="M4862.789,588.197c4.301-13.237,9.99-26.043,17.006-38.197
		c17.554-30.404,42.801-55.651,73.205-73.205c30.404-17.554,64.893-26.795,100-26.795v30c-29.841,0-59.157,7.855-85,22.776
		c-25.843,14.921-47.304,36.381-62.224,62.224c-5.964,10.33-10.8,21.215-14.456,32.467L4862.789,588.197z"/>
	<path id="XMLID_611_" class="st2" d="M4935.443,811.803c-22.612-16.429-41.595-37.464-55.648-61.803
		C4862.241,719.596,4853,685.107,4853,650c0-21.074,3.33-41.925,9.789-61.803l28.532,9.271c-5.49,16.897-8.32,34.62-8.32,52.533
		c0,29.841,7.855,59.157,22.776,85c11.944,20.689,28.08,38.569,47.301,52.533L4935.443,811.803z"/>
	<path id="XMLID_605_" class="st6" d="M5170.557,811.803c-5.634,4.093-11.493,7.9-17.557,11.402
		C5122.596,840.759,5088.107,850,5053,850s-69.596-9.241-100-26.795c-6.064-3.501-11.923-7.308-17.557-11.402l17.634-24.271
		c4.789,3.479,9.769,6.715,14.923,9.691c25.843,14.921,55.159,22.776,85,22.776s59.157-7.855,85-22.776
		c5.155-2.976,10.135-6.212,14.923-9.691L5170.557,811.803z"/>
	<path id="XMLID_599_" class="st5" d="M5243.211,588.197C5249.67,608.075,5253,628.926,5253,650c0,35.107-9.241,69.596-26.795,100
		c-14.053,24.34-33.036,45.375-55.648,61.803l-17.634-24.271c19.221-13.964,35.356-31.844,47.301-52.533
		c14.921-25.843,22.776-55.159,22.776-85c0-17.913-2.831-35.636-8.32-52.533L5243.211,588.197z"/>
	<path id="XMLID_593_" class="st4" d="M5053,450c35.107,0,69.596,9.241,100,26.795c30.404,17.554,55.651,42.801,73.205,73.205
		c7.017,12.153,12.705,24.959,17.006,38.197l-28.532,9.271c-3.656-11.252-8.491-22.137-14.456-32.467
		c-14.92-25.843-36.381-47.304-62.224-62.224c-25.843-14.921-55.159-22.776-85-22.776V450z"/>
	<path id="XMLID_589_" class="st1" d="M5053,480c29.841,0,59.157,7.855,85,22.776c25.843,14.921,47.304,36.381,62.224,62.224
		c14.921,25.843,22.776,55.159,22.776,85s-7.855,59.157-22.776,85c-14.92,25.843-36.381,47.304-62.224,62.224
		c-25.843,14.921-55.159,22.776-85,22.776s-59.157-7.855-85-22.776c-25.843-14.921-47.304-36.381-62.224-62.224
		c-14.921-25.843-22.776-55.159-22.776-85s7.855-59.157,22.776-85c14.92-25.843,36.381-47.304,62.224-62.224
		C4993.843,487.855,5023.159,480,5053,480z"/>
</g>
<g id="XMLID_623_">
	<path id="XMLID_652_" class="st3" d="M4862.789,1046.197c4.301-13.237,9.99-26.043,17.006-38.197
		c17.554-30.404,42.801-55.651,73.205-73.205S5017.893,908,5053,908v30c-29.841,0-59.157,7.855-85,22.776
		c-25.843,14.921-47.304,36.381-62.224,62.224c-5.964,10.33-10.8,21.215-14.456,32.467L4862.789,1046.197z"/>
	<path id="XMLID_646_" class="st2" d="M4935.443,1269.803c-22.612-16.429-41.595-37.464-55.648-61.803
		c-17.554-30.404-26.795-64.893-26.795-100c0-21.074,3.33-41.925,9.789-61.803l28.532,9.271c-5.49,16.897-8.32,34.62-8.32,52.533
		c0,29.841,7.855,59.157,22.776,85c11.944,20.689,28.08,38.569,47.301,52.533L4935.443,1269.803z"/>
	<path id="XMLID_640_" class="st6" d="M5170.557,1269.803c-5.634,4.093-11.493,7.9-17.557,11.402
		c-30.404,17.554-64.893,26.795-100,26.795s-69.596-9.241-100-26.795c-6.064-3.501-11.923-7.308-17.557-11.402l17.634-24.271
		c4.789,3.479,9.769,6.715,14.923,9.691c25.843,14.921,55.159,22.776,85,22.776s59.157-7.855,85-22.776
		c5.155-2.976,10.135-6.212,14.923-9.691L5170.557,1269.803z"/>
	<path id="XMLID_634_" class="st5" d="M5243.211,1046.197c6.458,19.878,9.789,40.729,9.789,61.803c0,35.107-9.241,69.596-26.795,100
		c-14.053,24.34-33.036,45.375-55.648,61.803l-17.634-24.271c19.221-13.964,35.356-31.844,47.301-52.533
		c14.921-25.843,22.776-55.159,22.776-85c0-17.913-2.831-35.636-8.32-52.533L5243.211,1046.197z"/>
	<path id="XMLID_628_" class="st4" d="M5053,908c35.107,0,69.596,9.241,100,26.795s55.651,42.801,73.205,73.205
		c7.017,12.153,12.705,24.959,17.006,38.197l-28.532,9.271c-3.656-11.252-8.491-22.137-14.456-32.467
		c-14.92-25.843-36.381-47.304-62.224-62.224c-25.843-14.921-55.159-22.776-85-22.776V908z"/>
	<path id="XMLID_624_" class="st1" d="M5053,938c29.841,0,59.157,7.855,85,22.776c25.843,14.921,47.304,36.381,62.224,62.224
		c14.921,25.843,22.776,55.159,22.776,85s-7.855,59.157-22.776,85c-14.92,25.843-36.381,47.304-62.224,62.224
		c-25.843,14.921-55.159,22.776-85,22.776s-59.157-7.855-85-22.776c-25.843-14.921-47.304-36.381-62.224-62.224
		c-14.921-25.843-22.776-55.159-22.776-85s7.855-59.157,22.776-85c14.92-25.843,36.381-47.304,62.224-62.224
		C4993.843,945.855,5023.159,938,5053,938z"/>
</g>
<g id="XMLID_658_">
	<path id="XMLID_687_" class="st3" d="M4862.789,1492.197c4.301-13.237,9.99-26.043,17.006-38.197
		c17.554-30.404,42.801-55.651,73.205-73.205S5017.893,1354,5053,1354v30c-29.841,0-59.157,7.855-85,22.776
		c-25.843,14.921-47.304,36.381-62.224,62.224c-5.964,10.33-10.8,21.215-14.456,32.467L4862.789,1492.197z"/>
	<path id="XMLID_681_" class="st2" d="M4935.443,1715.803c-22.612-16.429-41.595-37.464-55.648-61.803
		c-17.554-30.404-26.795-64.893-26.795-100c0-21.074,3.33-41.925,9.789-61.803l28.532,9.271c-5.49,16.897-8.32,34.62-8.32,52.533
		c0,29.841,7.855,59.157,22.776,85c11.944,20.689,28.08,38.569,47.301,52.533L4935.443,1715.803z"/>
	<path id="XMLID_675_" class="st6" d="M5170.557,1715.803c-5.634,4.093-11.493,7.9-17.557,11.402
		c-30.404,17.554-64.893,26.795-100,26.795s-69.596-9.241-100-26.795c-6.064-3.501-11.923-7.308-17.557-11.402l17.634-24.271
		c4.789,3.479,9.769,6.715,14.923,9.691c25.843,14.921,55.159,22.776,85,22.776s59.157-7.855,85-22.776
		c5.155-2.976,10.135-6.212,14.923-9.691L5170.557,1715.803z"/>
	<path id="XMLID_669_" class="st5" d="M5243.211,1492.197c6.458,19.878,9.789,40.729,9.789,61.803c0,35.107-9.241,69.596-26.795,100
		c-14.053,24.34-33.036,45.375-55.648,61.803l-17.634-24.271c19.221-13.964,35.356-31.844,47.301-52.533
		c14.921-25.843,22.776-55.159,22.776-85c0-17.913-2.831-35.636-8.32-52.533L5243.211,1492.197z"/>
	<path id="XMLID_663_" class="st0" d="M5053,1354c35.107,0,69.596,9.241,100,26.795s55.651,42.801,73.205,73.205
		c7.017,12.153,12.705,24.959,17.006,38.197l-28.532,9.271c-3.656-11.252-8.491-22.137-14.456-32.467
		c-14.92-25.843-36.381-47.304-62.224-62.224c-25.843-14.921-55.159-22.776-85-22.776V1354z"/>
	<path id="XMLID_659_" class="st1" d="M5053,1384c29.841,0,59.157,7.855,85,22.776c25.843,14.921,47.304,36.381,62.224,62.224
		c14.921,25.843,22.776,55.159,22.776,85s-7.855,59.157-22.776,85c-14.92,25.843-36.381,47.304-62.224,62.224
		c-25.843,14.921-55.159,22.776-85,22.776s-59.157-7.855-85-22.776c-25.843-14.921-47.304-36.381-62.224-62.224
		c-14.921-25.843-22.776-55.159-22.776-85s7.855-59.157,22.776-85c14.92-25.843,36.381-47.304,62.224-62.224
		C4993.843,1391.855,5023.159,1384,5053,1384z"/>
</g>
<g id="XMLID_189_">
	<path id="XMLID_220_" class="st6" d="M5802.205-150c-17.554,30.404-42.801,55.651-73.205,73.205S5664.107-50,5629-50v-30
		c29.841,0,59.157-7.855,85-22.776s47.304-36.381,62.224-62.224L5802.205-150z"/>
	<path id="XMLID_214_" class="st5" d="M5802.205-350c17.554,30.404,26.795,64.893,26.795,100s-9.241,69.596-26.795,100l-25.981-15
		c14.921-25.843,22.776-55.159,22.776-85s-7.855-59.157-22.776-85L5802.205-350z"/>
	<path id="XMLID_208_" class="st4" d="M5629-450c35.107,0,69.596,9.241,100,26.795c30.404,17.554,55.651,42.801,73.205,73.205
		l-25.981,15c-14.92-25.843-36.381-47.304-62.224-62.224c-25.843-14.921-55.159-22.776-85-22.776V-450z"/>
	<path id="XMLID_202_" class="st0" d="M5455.795-350c17.554-30.404,42.801-55.651,73.205-73.205
		c30.404-17.554,64.893-26.795,100-26.795v30c-29.841,0-59.157,7.855-85,22.776c-25.843,14.921-47.304,36.381-62.224,62.224
		L5455.795-350z"/>
	<path id="XMLID_196_" class="st3" d="M5455.795-150C5438.241-180.404,5429-214.893,5429-250s9.241-69.596,26.795-100l25.981,15
		c-14.921,25.843-22.776,55.159-22.776,85s7.855,59.157,22.776,85L5455.795-150z"/>
	<path id="XMLID_190_" class="st1" d="M5629-80c-29.841,0-59.157-7.855-85-22.776s-47.304-36.381-62.224-62.224
		c-14.921-25.843-22.776-55.159-22.776-85s7.855-59.157,22.776-85c14.92-25.843,36.381-47.304,62.224-62.224
		c25.843-14.921,55.159-22.776,85-22.776s59.157,7.855,85,22.776c25.843,14.921,47.304,36.381,62.224,62.224
		c14.921,25.843,22.776,55.159,22.776,85s-7.855,59.157-22.776,85c-14.92,25.843-36.381,47.304-62.224,62.224S5658.841-80,5629-80z"
		/>
	<path id="XMLID_273_" class="st2" d="M5629-50c-35.107,0-69.596-9.241-100-26.795s-55.651-42.801-73.205-73.205l25.981-15
		c14.92,25.843,36.381,47.304,62.224,62.224S5599.159-80,5629-80V-50z"/>
</g>
<g id="XMLID_1_">
	<path id="XMLID_107_" class="st3" d="M2572.795-350c17.554-30.404,42.801-55.651,73.205-73.205
		c30.404-17.554,64.893-26.795,100-26.795s69.596,9.241,100,26.795c30.404,17.554,55.651,42.801,73.205,73.205l-25.981,15
		c-14.921-25.843-36.381-47.304-62.224-62.224c-25.843-14.921-55.159-22.776-85-22.776s-59.157,7.855-85,22.776
		c-25.843,14.921-47.304,36.381-62.224,62.224L2572.795-350z"/>
	<path id="XMLID_54_" class="st2" d="M2746-50c-35.107,0-69.596-9.241-100-26.795s-55.651-42.801-73.205-73.205
		S2546-214.893,2546-250s9.241-69.596,26.795-100l25.981,15c-14.921,25.843-22.776,55.159-22.776,85s7.855,59.157,22.776,85
		s36.381,47.304,62.224,62.224S2716.159-80,2746-80V-50z"/>
	<path id="XMLID_48_" class="st0" d="M2919.205-350c17.554,30.404,26.795,64.893,26.795,100s-9.241,69.596-26.795,100
		S2876.404-94.349,2846-76.795S2781.107-50,2746-50v-30c29.841,0,59.157-7.855,85-22.776s47.304-36.381,62.224-62.224
		S2916-220.159,2916-250s-7.855-59.157-22.776-85L2919.205-350z"/>
	<path id="XMLID_2_" class="st1" d="M2746-420c29.841,0,59.157,7.855,85,22.776c25.843,14.921,47.304,36.381,62.224,62.224
		S2916-279.841,2916-250s-7.855,59.157-22.776,85s-36.381,47.304-62.224,62.224S2775.841-80,2746-80s-59.157-7.855-85-22.776
		s-47.304-36.381-62.224-62.224S2576-220.159,2576-250s7.855-59.157,22.776-85s36.381-47.304,62.224-62.224
		C2686.843-412.145,2716.159-420,2746-420z"/>
</g>
<g id="XMLID_45_">
	<path id="XMLID_207_" class="st3" d="M2572.795,100c17.554-30.404,42.801-55.651,73.205-73.205S2710.893,0,2746,0
		s69.596,9.241,100,26.795s55.651,42.801,73.205,73.205l-25.981,15c-14.921-25.843-36.381-47.304-62.224-62.224S2775.841,30,2746,30
		s-59.157,7.855-85,22.776s-47.304,36.381-62.224,62.224L2572.795,100z"/>
	<path id="XMLID_200_" class="st2" d="M2746,400c-35.107,0-69.596-9.241-100-26.795c-30.404-17.554-55.651-42.801-73.205-73.205
		S2546,235.107,2546,200s9.241-69.596,26.795-100l25.981,15c-14.921,25.843-22.776,55.159-22.776,85s7.855,59.157,22.776,85
		s36.381,47.304,62.224,62.224c25.843,14.921,55.159,22.776,85,22.776V400z"/>
	<path id="XMLID_193_" class="st4" d="M2919.205,100c17.554,30.404,26.795,64.893,26.795,100s-9.241,69.596-26.795,100
		s-42.801,55.651-73.205,73.205C2815.596,390.759,2781.107,400,2746,400v-30c29.841,0,59.157-7.855,85-22.776
		c25.843-14.921,47.304-36.381,62.224-62.224S2916,229.841,2916,200s-7.855-59.157-22.776-85L2919.205,100z"/>
	<path id="XMLID_114_" class="st1" d="M2746,30c29.841,0,59.157,7.855,85,22.776s47.304,36.381,62.224,62.224S2916,170.159,2916,200
		s-7.855,59.157-22.776,85s-36.381,47.304-62.224,62.224c-25.843,14.921-55.159,22.776-85,22.776s-59.157-7.855-85-22.776
		c-25.843-14.921-47.304-36.381-62.224-62.224S2576,229.841,2576,200s7.855-59.157,22.776-85s36.381-47.304,62.224-62.224
		S2716.159,30,2746,30z"/>
</g>
<g id="XMLID_115_">
	<path id="XMLID_236_" class="st3" d="M2572.795,550c17.554-30.404,42.801-55.651,73.205-73.205
		c30.404-17.554,64.893-26.795,100-26.795s69.596,9.241,100,26.795c30.404,17.554,55.651,42.801,73.205,73.205l-25.981,15
		c-14.921-25.843-36.381-47.304-62.224-62.224c-25.843-14.921-55.159-22.776-85-22.776s-59.157,7.855-85,22.776
		c-25.843,14.921-47.304,36.381-62.224,62.224L2572.795,550z"/>
	<path id="XMLID_229_" class="st2" d="M2746,850c-35.107,0-69.596-9.241-100-26.795s-55.651-42.801-73.205-73.205
		S2546,685.107,2546,650s9.241-69.596,26.795-100l25.981,15c-14.921,25.843-22.776,55.159-22.776,85s7.855,59.157,22.776,85
		s36.381,47.304,62.224,62.224c25.843,14.921,55.159,22.776,85,22.776V850z"/>
	<path id="XMLID_222_" class="st5" d="M2919.205,550c17.554,30.404,26.795,64.893,26.795,100s-9.241,69.596-26.795,100
		s-42.801,55.651-73.205,73.205S2781.107,850,2746,850v-30c29.841,0,59.157-7.855,85-22.776
		c25.843-14.921,47.304-36.381,62.224-62.224S2916,679.841,2916,650s-7.855-59.157-22.776-85L2919.205,550z"/>
	<path id="XMLID_216_" class="st1" d="M2746,480c29.841,0,59.157,7.855,85,22.776c25.843,14.921,47.304,36.381,62.224,62.224
		S2916,620.159,2916,650s-7.855,59.157-22.776,85s-36.381,47.304-62.224,62.224c-25.843,14.921-55.159,22.776-85,22.776
		s-59.157-7.855-85-22.776c-25.843-14.921-47.304-36.381-62.224-62.224S2576,679.841,2576,650s7.855-59.157,22.776-85
		s36.381-47.304,62.224-62.224C2686.843,487.855,2716.159,480,2746,480z"/>
</g>
<g id="XMLID_217_">
	<path id="XMLID_263_" class="st3" d="M2572.795,1008c17.554-30.404,42.801-55.651,73.205-73.205S2710.893,908,2746,908
		s69.596,9.241,100,26.795s55.651,42.801,73.205,73.205l-25.981,15c-14.921-25.843-36.381-47.304-62.224-62.224
		c-25.843-14.921-55.159-22.776-85-22.776s-59.157,7.855-85,22.776c-25.843,14.921-47.304,36.381-62.224,62.224L2572.795,1008z"/>
	<path id="XMLID_257_" class="st2" d="M2746,1308c-35.107,0-69.596-9.241-100-26.795s-55.651-42.801-73.205-73.205
		S2546,1143.107,2546,1108s9.241-69.596,26.795-100l25.981,15c-14.921,25.843-22.776,55.159-22.776,85s7.855,59.157,22.776,85
		s36.381,47.304,62.224,62.224c25.843,14.921,55.159,22.776,85,22.776V1308z"/>
	<path id="XMLID_250_" class="st6" d="M2919.205,1008c17.554,30.404,26.795,64.893,26.795,100s-9.241,69.596-26.795,100
		s-42.801,55.651-73.205,73.205S2781.107,1308,2746,1308v-30c29.841,0,59.157-7.855,85-22.776
		c25.843-14.921,47.304-36.381,62.224-62.224s22.776-55.159,22.776-85s-7.855-59.157-22.776-85L2919.205,1008z"/>
	<path id="XMLID_245_" class="st1" d="M2746,938c29.841,0,59.157,7.855,85,22.776c25.843,14.921,47.304,36.381,62.224,62.224
		s22.776,55.159,22.776,85s-7.855,59.157-22.776,85s-36.381,47.304-62.224,62.224c-25.843,14.921-55.159,22.776-85,22.776
		s-59.157-7.855-85-22.776c-25.843-14.921-47.304-36.381-62.224-62.224S2576,1137.841,2576,1108s7.855-59.157,22.776-85
		s36.381-47.304,62.224-62.224C2686.843,945.855,2716.159,938,2746,938z"/>
</g>
<g id="XMLID_385_">
	<path id="XMLID_402_" class="st5" d="M2572.795,1448c17.554-30.404,42.801-55.651,73.205-73.205S2710.893,1348,2746,1348
		s69.596,9.241,100,26.795s55.651,42.801,73.205,73.205l-25.981,15c-14.921-25.843-36.381-47.304-62.224-62.224
		c-25.843-14.921-55.159-22.776-85-22.776s-59.157,7.855-85,22.776c-25.843,14.921-47.304,36.381-62.224,62.224L2572.795,1448z"/>
	<path id="XMLID_396_" class="st2" d="M2746,1748c-35.107,0-69.596-9.241-100-26.795s-55.651-42.801-73.205-73.205
		S2546,1583.107,2546,1548s9.241-69.596,26.795-100l25.981,15c-14.921,25.843-22.776,55.159-22.776,85s7.855,59.157,22.776,85
		s36.381,47.304,62.224,62.224c25.843,14.921,55.159,22.776,85,22.776V1748z"/>
	<path id="XMLID_390_" class="st6" d="M2919.205,1448c17.554,30.404,26.795,64.893,26.795,100s-9.241,69.596-26.795,100
		s-42.801,55.651-73.205,73.205S2781.107,1748,2746,1748v-30c29.841,0,59.157-7.855,85-22.776
		c25.843-14.921,47.304-36.381,62.224-62.224s22.776-55.159,22.776-85s-7.855-59.157-22.776-85L2919.205,1448z"/>
	<path id="XMLID_386_" class="st1" d="M2746,1378c29.841,0,59.157,7.855,85,22.776c25.843,14.921,47.304,36.381,62.224,62.224
		s22.776,55.159,22.776,85s-7.855,59.157-22.776,85s-36.381,47.304-62.224,62.224c-25.843,14.921-55.159,22.776-85,22.776
		s-59.157-7.855-85-22.776c-25.843-14.921-47.304-36.381-62.224-62.224S2576,1577.841,2576,1548s7.855-59.157,22.776-85
		s36.381-47.304,62.224-62.224C2686.843,1385.855,2716.159,1378,2746,1378z"/>
</g>
<g id="XMLID_246_">
	<path id="XMLID_287_" class="st4" d="M3027.795-350c17.554-30.404,42.801-55.651,73.205-73.205
		c30.404-17.554,64.893-26.795,100-26.795s69.596,9.241,100,26.795c30.404,17.554,55.651,42.801,73.205,73.205l-25.981,15
		c-14.921-25.843-36.381-47.304-62.224-62.224c-25.843-14.921-55.159-22.776-85-22.776s-59.157,7.855-85,22.776
		c-25.843,14.921-47.304,36.381-62.224,62.224L3027.795-350z"/>
	<path id="XMLID_281_" class="st2" d="M3201-50c-35.107,0-69.596-9.241-100-26.795s-55.651-42.801-73.205-73.205
		S3001-214.893,3001-250s9.241-69.596,26.795-100l25.981,15c-14.921,25.843-22.776,55.159-22.776,85s7.855,59.157,22.776,85
		s36.381,47.304,62.224,62.224S3171.159-80,3201-80V-50z"/>
	<path id="XMLID_275_" class="st0" d="M3374.205-350c17.554,30.404,26.795,64.893,26.795,100s-9.241,69.596-26.795,100
		S3331.404-94.349,3301-76.795S3236.107-50,3201-50v-30c29.841,0,59.157-7.855,85-22.776s47.304-36.381,62.224-62.224
		S3371-220.159,3371-250s-7.855-59.157-22.776-85L3374.205-350z"/>
	<path id="XMLID_270_" class="st1" d="M3201-420c29.841,0,59.157,7.855,85,22.776c25.843,14.921,47.304,36.381,62.224,62.224
		S3371-279.841,3371-250s-7.855,59.157-22.776,85s-36.381,47.304-62.224,62.224S3230.841-80,3201-80s-59.157-7.855-85-22.776
		s-47.304-36.381-62.224-62.224S3031-220.159,3031-250s7.855-59.157,22.776-85s36.381-47.304,62.224-62.224
		C3141.843-412.145,3171.159-420,3201-420z"/>
</g>
<g id="XMLID_271_">
	<path id="XMLID_310_" class="st5" d="M3027.795,100c17.554-30.404,42.801-55.651,73.205-73.205S3165.893,0,3201,0
		s69.596,9.241,100,26.795s55.651,42.801,73.205,73.205l-25.981,15c-14.921-25.843-36.381-47.304-62.224-62.224S3230.841,30,3201,30
		s-59.157,7.855-85,22.776s-47.304,36.381-62.224,62.224L3027.795,100z"/>
	<path id="XMLID_304_" class="st2" d="M3201,400c-35.107,0-69.596-9.241-100-26.795c-30.404-17.554-55.651-42.801-73.205-73.205
		S3001,235.107,3001,200s9.241-69.596,26.795-100l25.981,15c-14.921,25.843-22.776,55.159-22.776,85s7.855,59.157,22.776,85
		s36.381,47.304,62.224,62.224c25.843,14.921,55.159,22.776,85,22.776V400z"/>
	<path id="XMLID_298_" class="st0" d="M3374.205,100c17.554,30.404,26.795,64.893,26.795,100s-9.241,69.596-26.795,100
		s-42.801,55.651-73.205,73.205C3270.596,390.759,3236.107,400,3201,400v-30c29.841,0,59.157-7.855,85-22.776
		c25.843-14.921,47.304-36.381,62.224-62.224S3371,229.841,3371,200s-7.855-59.157-22.776-85L3374.205,100z"/>
	<path id="XMLID_294_" class="st1" d="M3201,30c29.841,0,59.157,7.855,85,22.776s47.304,36.381,62.224,62.224S3371,170.159,3371,200
		s-7.855,59.157-22.776,85s-36.381,47.304-62.224,62.224c-25.843,14.921-55.159,22.776-85,22.776s-59.157-7.855-85-22.776
		c-25.843-14.921-47.304-36.381-62.224-62.224S3031,229.841,3031,200s7.855-59.157,22.776-85s36.381-47.304,62.224-62.224
		S3171.159,30,3201,30z"/>
</g>
<g id="XMLID_295_">
	<path id="XMLID_333_" class="st6" d="M3027.795,550c17.554-30.404,42.801-55.651,73.205-73.205
		c30.404-17.554,64.893-26.795,100-26.795s69.596,9.241,100,26.795c30.404,17.554,55.651,42.801,73.205,73.205l-25.981,15
		c-14.921-25.843-36.381-47.304-62.224-62.224c-25.843-14.921-55.159-22.776-85-22.776s-59.157,7.855-85,22.776
		c-25.843,14.921-47.304,36.381-62.224,62.224L3027.795,550z"/>
	<path id="XMLID_327_" class="st2" d="M3201,850c-35.107,0-69.596-9.241-100-26.795s-55.651-42.801-73.205-73.205
		S3001,685.107,3001,650s9.241-69.596,26.795-100l25.981,15c-14.921,25.843-22.776,55.159-22.776,85s7.855,59.157,22.776,85
		s36.381,47.304,62.224,62.224c25.843,14.921,55.159,22.776,85,22.776V850z"/>
	<path id="XMLID_321_" class="st0" d="M3374.205,550c17.554,30.404,26.795,64.893,26.795,100s-9.241,69.596-26.795,100
		s-42.801,55.651-73.205,73.205S3236.107,850,3201,850v-30c29.841,0,59.157-7.855,85-22.776
		c25.843-14.921,47.304-36.381,62.224-62.224S3371,679.841,3371,650s-7.855-59.157-22.776-85L3374.205,550z"/>
	<path id="XMLID_317_" class="st1" d="M3201,480c29.841,0,59.157,7.855,85,22.776c25.843,14.921,47.304,36.381,62.224,62.224
		S3371,620.159,3371,650s-7.855,59.157-22.776,85s-36.381,47.304-62.224,62.224c-25.843,14.921-55.159,22.776-85,22.776
		s-59.157-7.855-85-22.776c-25.843-14.921-47.304-36.381-62.224-62.224S3031,679.841,3031,650s7.855-59.157,22.776-85
		s36.381-47.304,62.224-62.224C3141.843,487.855,3171.159,480,3201,480z"/>
</g>
<g id="XMLID_318_">
	<path id="XMLID_356_" class="st6" d="M3027.795,1008c17.554-30.404,42.801-55.651,73.205-73.205S3165.893,908,3201,908
		s69.596,9.241,100,26.795s55.651,42.801,73.205,73.205l-25.981,15c-14.921-25.843-36.381-47.304-62.224-62.224
		c-25.843-14.921-55.159-22.776-85-22.776s-59.157,7.855-85,22.776c-25.843,14.921-47.304,36.381-62.224,62.224L3027.795,1008z"/>
	<path id="XMLID_350_" class="st2" d="M3201,1308c-35.107,0-69.596-9.241-100-26.795s-55.651-42.801-73.205-73.205
		S3001,1143.107,3001,1108s9.241-69.596,26.795-100l25.981,15c-14.921,25.843-22.776,55.159-22.776,85s7.855,59.157,22.776,85
		s36.381,47.304,62.224,62.224c25.843,14.921,55.159,22.776,85,22.776V1308z"/>
	<path id="XMLID_344_" class="st4" d="M3374.205,1008c17.554,30.404,26.795,64.893,26.795,100s-9.241,69.596-26.795,100
		s-42.801,55.651-73.205,73.205S3236.107,1308,3201,1308v-30c29.841,0,59.157-7.855,85-22.776
		c25.843-14.921,47.304-36.381,62.224-62.224s22.776-55.159,22.776-85s-7.855-59.157-22.776-85L3374.205,1008z"/>
	<path id="XMLID_340_" class="st1" d="M3201,938c29.841,0,59.157,7.855,85,22.776c25.843,14.921,47.304,36.381,62.224,62.224
		s22.776,55.159,22.776,85s-7.855,59.157-22.776,85s-36.381,47.304-62.224,62.224c-25.843,14.921-55.159,22.776-85,22.776
		s-59.157-7.855-85-22.776c-25.843-14.921-47.304-36.381-62.224-62.224S3031,1137.841,3031,1108s7.855-59.157,22.776-85
		s36.381-47.304,62.224-62.224C3141.843,945.855,3171.159,938,3201,938z"/>
</g>
<g id="XMLID_341_">
	<path id="XMLID_379_" class="st5" d="M3027.795,1448c17.554-30.404,42.801-55.651,73.205-73.205S3165.893,1348,3201,1348
		s69.596,9.241,100,26.795s55.651,42.801,73.205,73.205l-25.981,15c-14.921-25.843-36.381-47.304-62.224-62.224
		c-25.843-14.921-55.159-22.776-85-22.776s-59.157,7.855-85,22.776c-25.843,14.921-47.304,36.381-62.224,62.224L3027.795,1448z"/>
	<path id="XMLID_373_" class="st2" d="M3201,1748c-35.107,0-69.596-9.241-100-26.795s-55.651-42.801-73.205-73.205
		S3001,1583.107,3001,1548s9.241-69.596,26.795-100l25.981,15c-14.921,25.843-22.776,55.159-22.776,85s7.855,59.157,22.776,85
		s36.381,47.304,62.224,62.224c25.843,14.921,55.159,22.776,85,22.776V1748z"/>
	<path id="XMLID_367_" class="st4" d="M3374.205,1448c17.554,30.404,26.795,64.893,26.795,100s-9.241,69.596-26.795,100
		s-42.801,55.651-73.205,73.205S3236.107,1748,3201,1748v-30c29.841,0,59.157-7.855,85-22.776
		c25.843-14.921,47.304-36.381,62.224-62.224s22.776-55.159,22.776-85s-7.855-59.157-22.776-85L3374.205,1448z"/>
	<path id="XMLID_363_" class="st1" d="M3201,1378c29.841,0,59.157,7.855,85,22.776c25.843,14.921,47.304,36.381,62.224,62.224
		s22.776,55.159,22.776,85s-7.855,59.157-22.776,85s-36.381,47.304-62.224,62.224c-25.843,14.921-55.159,22.776-85,22.776
		s-59.157-7.855-85-22.776c-25.843-14.921-47.304-36.381-62.224-62.224S3031,1577.841,3031,1548s7.855-59.157,22.776-85
		s36.381-47.304,62.224-62.224C3141.843,1385.855,3171.159,1378,3201,1378z"/>
</g>
<text transform="matrix(1 0 0 1 4949 1290)" style="font-family:'MyriadPro-Regular'; font-size:12px;">5d646a</text>
<text transform="matrix(1 0 0 1 4949 1290)" style="font-family:'MyriadPro-Regular'; font-size:12px;">5d646a</text>
<text id="XMLID_815_" transform="matrix(1 0 0 1 4949 1290)" style="font-family:'MyriadPro-Regular'; font-size:12px;">5d646a</text>
</svg>
