<?xml version="1.0" encoding="utf-8"?>
<!-- Generator: Adobe Illustrator 19.2.1, SVG Export Plug-In . SVG Version: 6.00 Build 0)  -->
<svg version="1.1" id="Layer_1" xmlns="http://www.w3.org/2000/svg" xmlns:xlink="http://www.w3.org/1999/xlink" x="0px" y="0px"
	 width="40px" height="40px" viewBox="0 0 40 40" style="enable-background:new 0 0 40 40;" xml:space="preserve">
<style type="text/css">
	.st0{fill:#8FC400;}
	.st1{fill:#00121F;}
</style>
<g id="XMLID_967_">
	<path id="XMLID_972_" class="st0" d="M20,0c3.5,0,7,0.9,10,2.7S35.6,7,37.3,10c1.8,3,2.7,6.5,2.7,10s-0.9,7-2.7,10
		c-1.8,3-4.3,5.6-7.3,7.3c-3,1.8-6.5,2.7-10,2.7s-7-0.9-10-2.7C7,35.6,4.4,33,2.7,30S0,23.5,0,20s0.9-7,2.7-10S7,4.4,10,2.7
		S16.5,0,20,0z M11.5,5.3c-2.6,1.5-4.7,3.6-6.2,6.2S3,17,3,20s0.8,5.9,2.3,8.5s3.6,4.7,6.2,6.2C14.1,36.2,17,37,20,37
		s5.9-0.8,8.5-2.3s4.7-3.6,6.2-6.2C36.2,25.9,37,23,37,20s-0.8-5.9-2.3-8.5c-1.5-2.6-3.6-4.7-6.2-6.2S23,3,20,3S14.1,3.8,11.5,5.3z"
		/>
	<path id="XMLID_968_" class="st1" d="M20,3c3,0,5.9,0.8,8.5,2.3s4.7,3.6,6.2,6.2C36.2,14.1,37,17,37,20s-0.8,5.9-2.3,8.5
		s-3.6,4.7-6.2,6.2C25.9,36.2,23,37,20,37s-5.9-0.8-8.5-2.3c-2.6-1.5-4.7-3.6-6.2-6.2S3,23,3,20s0.8-5.9,2.3-8.5s3.6-4.7,6.2-6.2
		S17,3,20,3z"/>
</g>
</svg>
